<?xml version="1.0" encoding="utf-8"?>
<!-- Generator: Adobe Illustrator 19.0.0, SVG Export Plug-In . SVG Version: 6.00 Build 0)  -->
<svg version="1.1" id="Layer_1" xmlns="http://www.w3.org/2000/svg" xmlns:xlink="http://www.w3.org/1999/xlink" x="0px" y="0px"
	 viewBox="0 0 100 100" style="enable-background:new 0 0 100 100;" xml:space="preserve">
<g id="Layer_6">
	<path id="XMLID_24_" d="M76,24.5v-6.3C76,8.2,67.8,0,57.8,0h-26C21.7,0,13.5,8.2,13.5,18.3v62.3c0,10.1,8.2,18.3,18.3,18.3h26
		c10.1,0,18.3-8.2,18.3-18.3v-7.3c0-2.8-2.2-5-5-5l0,0c-2.8,0-5,2.2-5,5v7.3c0,4.6-3.7,8.3-8.3,8.3h-26c-4.6,0-8.3-3.7-8.3-8.3V18.3
		c0-4.6,3.7-8.3,8.3-8.3h26c4.6,0,8.3,3.7,8.3,8.3v6.3c0,2.8,2.2,5,5,5l0,0C73.8,29.5,76,27.3,76,24.5z"/>
	<path id="XMLID_12_" d="M85.3,54.8H47.5v-10h37.7c2.8,0,5,2.2,5,5l0,0C90.3,52.5,88,54.8,85.3,54.8z"/>
	<path id="XMLID_23_" d="M59.3,38.5L44.8,52.9c-2,1.9-5.1,1.9-7.1,0l0,0c-1.9-2-1.9-5.1,0-7.1l14.5-14.4c2-1.9,5.1-1.9,7.1,0l0,0
		C61.3,33.4,61.3,36.6,59.3,38.5z"/>
	<path id="XMLID_25_" d="M59.3,60.3L44.8,45.8c-2-1.9-5.1-1.9-7.1,0l0,0c-1.9,2-1.9,5.1,0,7.1l14.5,14.4c2,1.9,5.1,1.9,7.1,0l0,0
		C61.3,65.4,61.3,62.2,59.3,60.3z"/>
</g>
</svg>
