<?xml version="1.0" encoding="utf-8"?>
<!-- Generator: Adobe Illustrator 19.0.0, SVG Export Plug-In . SVG Version: 6.00 Build 0)  -->
<svg version="1.1" id="Layer_1" xmlns="http://www.w3.org/2000/svg" xmlns:xlink="http://www.w3.org/1999/xlink" x="0px" y="0px"
	 viewBox="0 0 100 100" style="enable-background:new 0 0 100 100;" xml:space="preserve">
<g id="Layer_2">
	<path id="XMLID_3_" d="M92.6,27.3H7.4C3.3,27.3,0,24,0,19.9l0,0c0-4.1,3.3-7.4,7.4-7.4h85.3c4.1,0,7.4,3.3,7.4,7.4l0,0
		C100,23.9,96.7,27.3,92.6,27.3z"/>
	<path id="XMLID_8_" d="M92.6,56.8H7.4c-4.1,0-7.4-3.3-7.4-7.4l0,0C0,45.3,3.3,42,7.4,42h85.3c4.1,0,7.4,3.3,7.4,7.4l0,0
		C100,53.4,96.7,56.8,92.6,56.8z"/>
	<path id="XMLID_10_" d="M92.6,86.3H7.4C3.3,86.3,0,83,0,78.9l0,0c0-4.1,3.3-7.4,7.4-7.4h85.3c4.1,0,7.4,3.3,7.4,7.4l0,0
		C100,82.9,96.7,86.3,92.6,86.3z"/>
</g>
</svg>
