<?xml version="1.0" encoding="utf-8"?>
<!-- Generator: Adobe Illustrator 19.0.0, SVG Export Plug-In . SVG Version: 6.00 Build 0)  -->
<svg version="1.1" id="Layer_1" xmlns="http://www.w3.org/2000/svg" xmlns:xlink="http://www.w3.org/1999/xlink" x="0px" y="0px"
	 viewBox="0 0 100 100" style="enable-background:new 0 0 100 100;" xml:space="preserve">
<g id="Layer_5">
	<g id="XMLID_19_">
		<path id="XMLID_20_" d="M87.4,8.8L84,23.6h4.3c3.6,0,6.6,2.7,7,6.3l0,0c0.5,4.2-2.8,7.8-7,7.8h-7.6l-5.6,23.6h13.2
			c3.6,0,6.6,2.7,7,6.3l0,0c0.5,4.2-2.8,7.8-7,7.8H71.8l-4.3,18.9c-0.8,3.4-3.9,5.7-7.3,5.5L59,99.7c-4.3-0.3-7.4-4.4-6.4-8.6
			l3.6-15.7H31.5l-4.4,18.9c-0.8,3.3-3.9,5.6-7.3,5.4l-1.2-0.1c-4.3-0.3-7.4-4.4-6.4-8.6l3.6-15.7h-4.2c-3.6,0-6.6-2.7-7-6.2l0,0
			c-0.5-4.2,2.8-7.9,7-7.9h7.5l5.4-23.6h-13c-3.6,0-6.6-2.7-7-6.2l0,0c-0.5-4.2,2.8-7.9,7-7.9h16.4l4.3-18c0.8-3.2,3.7-5.5,7-5.4
			h1.2c4.5,0.1,7.7,4.3,6.7,8.7l-3.5,14.7h24.7l4.1-17.9c0.7-3.3,3.7-5.5,7-5.5h1.4C85.2,0.3,88.5,4.5,87.4,8.8z M40.4,37.6
			l-5.6,23.6h24.5l5.6-23.6H40.4z"/>
	</g>
</g>
</svg>
