<?xml version="1.0" encoding="utf-8"?>
<!-- Generator: Adobe Illustrator 19.0.0, SVG Export Plug-In . SVG Version: 6.00 Build 0)  -->
<svg version="1.1" id="Layer_1" xmlns="http://www.w3.org/2000/svg" xmlns:xlink="http://www.w3.org/1999/xlink" x="0px" y="0px"
	 viewBox="0 0 100 100" style="enable-background:new 0 0 100 100;" xml:space="preserve">
<g id="Layer_8">
	<g id="XMLID_37_">
		<path id="XMLID_38_" d="M86.9,56.2H58.8v36.4c0,4-3.4,7.2-7.4,7.1l-2.6-0.1C45,99.4,42,96.3,42,92.5V56.2H12.9
			c-3.6,0-6.7-2.7-7-6.3l0,0c-0.4-4.2,2.8-7.8,7-7.8H42V7.3c0-4,3.3-7.2,7.3-7.1l2.6,0.1c3.8,0.1,6.8,3.3,6.8,7.1v34.7h28.1
			c3.5,0,6.5,2.6,7,6.1l0,0C94.5,52.5,91.2,56.2,86.9,56.2z"/>
	</g>
</g>
</svg>
