<?xml version="1.0" encoding="utf-8"?>
<!-- Generator: Adobe Illustrator 19.0.0, SVG Export Plug-In . SVG Version: 6.00 Build 0)  -->
<svg version="1.1" id="Layer_1" xmlns="http://www.w3.org/2000/svg" xmlns:xlink="http://www.w3.org/1999/xlink" x="0px" y="0px"
	 viewBox="0 0 100 100" style="enable-background:new 0 0 100 100;" xml:space="preserve">
<g id="Layer_3">
	<polygon id="XMLID_26_" points="45.4,41.7 50,41.7 50,53.3 42.6,53.3 	"/>
	<path id="XMLID_27_" d="M50,0v34.8h-3.1l1.7-7.2c0.5-2.1-1.1-4.2-3.3-4.3h-0.6c-1.6,0-3.1,1.1-3.5,2.7l-2.1,8.8h-8
		c-2.1,0-3.7,1.8-3.4,3.9l0,0c0.2,1.7,1.7,3,3.4,3h6.3l-2.7,11.6H31c-2.1,0-3.7,1.8-3.4,3.9l0,0c0.2,1.7,1.7,3,3.4,3h2.1l-1.7,7.7
		c-0.5,2.1,1,4.1,3.2,4.2h0.6c1.7,0.1,3.2-1,3.6-2.7l2.2-9.3h9V100c-7.7-3.9-20.5-11.7-31.5-26.3C1.8,51.6,0.4,28.2,0.3,19.5
		c7-0.6,16.8-2.3,27.8-6.8C37.5,8.8,44.9,4,50,0z"/>
	<polygon id="XMLID_30_" points="54.6,53.3 50,53.3 50,41.7 57.4,41.7 	"/>
	<path id="XMLID_31_" d="M99.8,19.5c-0.1,8.7-1.6,32.1-18.3,54.3C70.5,88.3,57.7,96.1,50,100V60.2h3.1l-1.8,7.7
		c-0.5,2.1,1,4.1,3.2,4.2h0.6c1.7,0.1,3.2-1,3.6-2.7l2.1-9.3h8.1c2.1,0,3.7-1.8,3.4-3.8l0,0c-0.2-1.8-1.7-3.1-3.4-3.1h-6.5l2.8-11.6
		h3.7c2.1,0,3.7-1.8,3.4-3.8l0,0c-0.2-1.8-1.7-3.1-3.4-3.1h-2.1l1.7-7.2c0.5-2.1-1.1-4.2-3.3-4.2h-0.7c-1.6,0-3.1,1.1-3.5,2.7
		l-2,8.8h-9V0c5.1,4,12.5,8.8,22,12.8C82.9,17.3,92.8,18.9,99.8,19.5z"/>
</g>
</svg>
