<?xml version="1.0" encoding="utf-8"?>
<!-- Generator: Adobe Illustrator 19.0.0, SVG Export Plug-In . SVG Version: 6.00 Build 0)  -->
<svg version="1.1" id="Layer_1" xmlns="http://www.w3.org/2000/svg" xmlns:xlink="http://www.w3.org/1999/xlink" x="0px" y="0px"
	 viewBox="0 0 100 100" style="enable-background:new 0 0 100 100;" xml:space="preserve">
<g id="Layer_6_copy">
	<path id="XMLID_32_" d="M69,24.5v-6.3C69,8.2,60.8,0,50.8,0h-26C14.7,0,6.5,8.2,6.5,18.3v62.3c0,10.1,8.2,18.3,18.3,18.3h26
		c10.1,0,18.3-8.2,18.3-18.3v-7.3c0-2.8-2.2-5-5-5l0,0c-2.8,0-5,2.2-5,5v7.3c0,4.6-3.7,8.3-8.3,8.3h-26c-4.6,0-8.3-3.7-8.3-8.3V18.3
		c0-4.6,3.7-8.3,8.3-8.3h26c4.6,0,8.3,3.7,8.3,8.3v6.3c0,2.8,2.2,5,5,5l0,0C66.8,29.5,69,27.3,69,24.5z"/>
	<path id="XMLID_29_" d="M48,54.8h37.7v-10H48c-2.8,0-5,2.2-5,5l0,0C43,52.5,45.3,54.8,48,54.8z"/>
	<path id="XMLID_28_" d="M73.9,38.5l14.5,14.4c2,1.9,5.1,1.9,7.1,0l0,0c1.9-2,1.9-5.1,0-7.1L81,31.4c-2-1.9-5.1-1.9-7.1,0l0,0
		C72,33.4,72,36.6,73.9,38.5z"/>
	<path id="XMLID_16_" d="M73.9,60.3l14.5-14.4c2-1.9,5.1-1.9,7.1,0l0,0c1.9,2,1.9,5.1,0,7.1L81,67.4c-2,1.9-5.1,1.9-7.1,0l0,0
		C72,65.4,72,62.2,73.9,60.3z"/>
</g>
</svg>
